<?xml version="1.0"?>
<!DOCTYPE svg PUBLIC "-//W3C//DTD SVG 1.1//EN" "http://www.w3.org/Graphics/SVG/1.1/DTD/svg11.dtd">
<svg width="372.1368mm" height="233.5568mm" viewBox="0 0 372.1368 233.5568" xmlns="http://www.w3.org/2000/svg" version="1.1">
<g id="Sketch006" transform="translate(186.068400,229.908400) scale(1,-1)">
<circle cx="-128.847899231" cy="141.16354706" r="12.0" stroke="#000000" stroke-width="0.35 px" style="stroke-width:0.35;stroke-miterlimit:4;stroke-dasharray:none;fill:none"/>
<path id="Sketch006_w0001"  d="M -93.9879618579 150.641485753 A 12 12 0 1 1 -101.201 129.164L -92.868976337 115.480526003 A 14 14 0 1 1 -72.3248 133.819L -93.9879618579 150.641485753 " stroke="#000000" stroke-width="0.35 px" style="stroke-width:0.35;stroke-miterlimit:4;stroke-dasharray:none;fill:none;fill-rule: evenodd "/>
<path id="Sketch006_w0002"  d="M -81.6523828869 84.4713631485 A 14 14 0 0 1 -85.2156 60.4859L -63.6789826032 43.3855200256 A 14 14 0 0 1 -41.1253 52.2928L -37.1065323737 79.3494020357 A 14 14 0 0 1 -56.0747 94.5725L -81.6523828869 84.4713631485 " stroke="#000000" stroke-width="0.35 px" style="stroke-width:0.35;stroke-miterlimit:4;stroke-dasharray:none;fill:none;fill-rule: evenodd "/>
<circle cx="-152.42" cy="127.0" r="12.0" stroke="#000000" stroke-width="0.35 px" style="stroke-width:0.35;stroke-miterlimit:4;stroke-dasharray:none;fill:none"/>
<path id="Sketch006_w0004"  d="M 0.0 0.0 L -182.42 0.0 L -182.42 226.26 L 0.0 226.26 L 0.0 0.0 L 182.42 0.0 L 182.42 226.26 L 0.0 226.26 " stroke="#000000" stroke-width="0.35 px" style="stroke-width:0.35;stroke-miterlimit:4;stroke-dasharray:none;fill:none;fill-rule: evenodd "/>
<circle cx="0.0" cy="119.900447527" r="14.0" stroke="#000000" stroke-width="0.35 px" style="stroke-width:0.35;stroke-miterlimit:4;stroke-dasharray:none;fill:none"/>
<circle cx="128.847899231" cy="141.16354706" r="12.0" stroke="#000000" stroke-width="0.35 px" style="stroke-width:0.35;stroke-miterlimit:4;stroke-dasharray:none;fill:none"/>
<path id="Sketch006_w0007"  d="M 111.116023059 134.193342122 A 12 12 0 0 1 93.9882 150.642L 72.3250520906 133.820227725 A 14 14 0 0 1 76.5852 109.448L 102.739233208 100.94969673 A 14 14 0 0 1 112.908 126.987L 111.116023059 134.193342122 " stroke="#000000" stroke-width="0.35 px" style="stroke-width:0.35;stroke-miterlimit:4;stroke-dasharray:none;fill:none;fill-rule: evenodd "/>
<path id="Sketch006_w0008"  d="M 44.5659345061 78.734012184 A 14 14 0 0 1 43.0556 76.9079L 27.3845832921 54.3099209112 A 14 14 0 0 1 26.2277 40.3578L 37.9626843888 15.4873328836 A 14 14 0 0 1 61.412 12.5385L 96.3408260118 54.7677364085 A 14 14 0 0 1 98.2142 69.6649L 86.4792108045 94.5353717066 A 14 14 0 0 1 63.8238 98.3652L 44.5659345061 78.734012184 " stroke="#000000" stroke-width="0.35 px" style="stroke-width:0.35;stroke-miterlimit:4;stroke-dasharray:none;fill:none;fill-rule: evenodd "/>
<circle cx="152.42" cy="127.0" r="12.0" stroke="#000000" stroke-width="0.35 px" style="stroke-width:0.35;stroke-miterlimit:4;stroke-dasharray:none;fill:none"/>
<title>Sketch006</title>
</g>
</svg>