<?xml version="1.0"?>
<!DOCTYPE svg PUBLIC "-//W3C//DTD SVG 1.1//EN" "http://www.w3.org/Graphics/SVG/1.1/DTD/svg11.dtd">
<svg width="235.096962875mm" height="183.848377333mm" viewBox="0 0 235.096962875 183.848377333" xmlns="http://www.w3.org/2000/svg" version="1.1">
<g id="Sketch005" transform="translate(110.534272,181.468419) scale(1,-1)">
<circle cx="-80.91" cy="122.762455" r="12.0" stroke="#000000" stroke-width="0.35 px" style="stroke-width:0.35;stroke-miterlimit:4;stroke-dasharray:none;fill:none"/>
<circle cx="-50.93232202" cy="81.5511083131" r="12.0" stroke="#000000" stroke-width="0.35 px" style="stroke-width:0.35;stroke-miterlimit:4;stroke-dasharray:none;fill:none"/>
<circle cx="-54.9733446045" cy="54.3496352561" r="12.0" stroke="#000000" stroke-width="0.35 px" style="stroke-width:0.35;stroke-miterlimit:4;stroke-dasharray:none;fill:none"/>
<circle cx="-76.51" cy="71.45" r="12.0" stroke="#000000" stroke-width="0.35 px" style="stroke-width:0.35;stroke-miterlimit:4;stroke-dasharray:none;fill:none"/>
<circle cx="0.0" cy="120.0" r="12.0" stroke="#000000" stroke-width="0.35 px" style="stroke-width:0.35;stroke-miterlimit:4;stroke-dasharray:none;fill:none"/>
<path id="Sketch005_w0005"  d="M 96.2293999368 179.163546675 L -96.2293999368 179.163546675 A 12 12 0 0 1 -108.229 167.164L -108.229399937 150.993371206 A 12 12 0 1 0 -108.229 131.334L -100.764646253 64.8073597207 A 16 16 0 0 1 -94.8137 54.0611L -31.0029041881 3.39449602763 A 16 16 0 0 1 -21.0536 -0.0750863L 57.7242441226 -0.075086287714 A 16 16 0 0 1 70.0533 5.72721L 105.077468658 48.0716205551 A 16 16 0 0 1 108.288 54.4571L 121.681830413 109.0539414 A 28 28 0 0 1 112.623 137.059A 12 12 0 1 0 108.229 150.993L 108.229399937 167.163546675 A 12 12 0 0 1 96.2294 179.164" stroke="#000000" stroke-width="0.35 px" style="stroke-width:0.35;stroke-miterlimit:4;stroke-dasharray:none;fill:none;fill-rule: evenodd "/>
<circle cx="80.91" cy="122.762455" r="12.0" stroke="#000000" stroke-width="0.35 px" style="stroke-width:0.35;stroke-miterlimit:4;stroke-dasharray:none;fill:none"/>
<circle cx="38.8890328895" cy="46.3319737627" r="12.0" stroke="#000000" stroke-width="0.35 px" style="stroke-width:0.35;stroke-miterlimit:4;stroke-dasharray:none;fill:none"/>
<circle cx="54.56" cy="68.93" r="12.0" stroke="#000000" stroke-width="0.35 px" style="stroke-width:0.35;stroke-miterlimit:4;stroke-dasharray:none;fill:none"/>
<circle cx="73.817880649" cy="88.5612004958" r="12.0" stroke="#000000" stroke-width="0.35 px" style="stroke-width:0.35;stroke-miterlimit:4;stroke-dasharray:none;fill:none"/>
<circle cx="50.6240141312" cy="21.4615050245" r="12.0" stroke="#000000" stroke-width="0.35 px" style="stroke-width:0.35;stroke-miterlimit:4;stroke-dasharray:none;fill:none"/>
<circle cx="66.2949812417" cy="44.0595312618" r="12.0" stroke="#000000" stroke-width="0.35 px" style="stroke-width:0.35;stroke-miterlimit:4;stroke-dasharray:none;fill:none"/>
<circle cx="85.5528618907" cy="63.6907317576" r="12.0" stroke="#000000" stroke-width="0.35 px" style="stroke-width:0.35;stroke-miterlimit:4;stroke-dasharray:none;fill:none"/>
<circle cx="107.064054198" cy="114.264487655" r="12.0" stroke="#000000" stroke-width="0.35 px" style="stroke-width:0.35;stroke-miterlimit:4;stroke-dasharray:none;fill:none"/>
<path id="Sketch005_w0014"  d="M 0.0 0.0 L 0.0 179.163546675 " stroke="#000000" stroke-width="0.35 px" style="stroke-width:0.35;stroke-miterlimit:4;stroke-dasharray:none;fill:none;fill-rule: evenodd "/>
<title>Sketch005</title>
</g>
</svg>