<?xml version="1.0"?>
<!DOCTYPE svg PUBLIC "-//W3C//DTD SVG 1.1//EN" "http://www.w3.org/Graphics/SVG/1.1/DTD/svg11.dtd">
<svg width="202.45651029mm" height="166.66770349mm" viewBox="0 0 202.45651029 166.66770349" xmlns="http://www.w3.org/2000/svg" version="1.1">
<g id="Sketch007" transform="translate(96.600134,164.682836) scale(1,-1)">
<path id="Sketch007_w0000"  d="M -88.7127503574 58.1550610807 L -26.6357760403 8.86519301494 A 16 16 0 0 1 -16.6865 5.39561L 53.1649963781 5.3956106996 A 16 16 0 0 1 65.4941 11.1979L 100.232917739 53.197383964 A 16 16 0 0 1 102.374 70.2227L 83.1462863474 110.972670296 A 12 12 0 1 0 79.1595 134.634L 79.1594910754 150.697967994 A 12 12 0 0 1 67.1595 162.698L -67.1594910754 162.697967994 A 12 12 0 0 1 -79.1595 150.698L -79.1594910754 134.634090039 A 12 12 0 1 0 -85.0316 111.492L -94.2834926442 74.5749762204 A 16 16 0 0 1 -88.7128 58.1551" stroke="#000000" stroke-width="0.35 px" style="stroke-width:0.35;stroke-miterlimit:4;stroke-dasharray:none;fill:none;fill-rule: evenodd "/>
<circle cx="-50.93232202" cy="81.5511083131" r="12.0" stroke="#000000" stroke-width="0.35 px" style="stroke-width:0.35;stroke-miterlimit:4;stroke-dasharray:none;fill:none"/>
<circle cx="-54.9733446045" cy="54.3496352561" r="12.0" stroke="#000000" stroke-width="0.35 px" style="stroke-width:0.35;stroke-miterlimit:4;stroke-dasharray:none;fill:none"/>
<circle cx="-76.51" cy="71.45" r="12.0" stroke="#000000" stroke-width="0.35 px" style="stroke-width:0.35;stroke-miterlimit:4;stroke-dasharray:none;fill:none"/>
<circle cx="0.0" cy="120.0" r="12.0" stroke="#000000" stroke-width="0.35 px" style="stroke-width:0.35;stroke-miterlimit:4;stroke-dasharray:none;fill:none"/>
<circle cx="38.8890328895" cy="46.3319737627" r="12.0" stroke="#000000" stroke-width="0.35 px" style="stroke-width:0.35;stroke-miterlimit:4;stroke-dasharray:none;fill:none"/>
<circle cx="54.56" cy="68.93" r="12.0" stroke="#000000" stroke-width="0.35 px" style="stroke-width:0.35;stroke-miterlimit:4;stroke-dasharray:none;fill:none"/>
<circle cx="73.817880649" cy="88.5612004958" r="12.0" stroke="#000000" stroke-width="0.35 px" style="stroke-width:0.35;stroke-miterlimit:4;stroke-dasharray:none;fill:none"/>
<circle cx="50.6240141312" cy="21.4615050245" r="12.0" stroke="#000000" stroke-width="0.35 px" style="stroke-width:0.35;stroke-miterlimit:4;stroke-dasharray:none;fill:none"/>
<circle cx="66.2949812417" cy="44.0595312618" r="12.0" stroke="#000000" stroke-width="0.35 px" style="stroke-width:0.35;stroke-miterlimit:4;stroke-dasharray:none;fill:none"/>
<circle cx="85.5528618907" cy="63.6907317576" r="12.0" stroke="#000000" stroke-width="0.35 px" style="stroke-width:0.35;stroke-miterlimit:4;stroke-dasharray:none;fill:none"/>
<path id="Sketch007_w0011"  d="M 0.0 0.0 L 0.0 162.697967994 " stroke="#000000" stroke-width="0.35 px" style="stroke-width:0.35;stroke-miterlimit:4;stroke-dasharray:none;fill:none;fill-rule: evenodd "/>
<title>Sketch007</title>
</g>
</svg>