<?xml version="1.0"?>
<!DOCTYPE svg PUBLIC "-//W3C//DTD SVG 1.1//EN" "http://www.w3.org/Graphics/SVG/1.1/DTD/svg11.dtd">
<svg width="372.130804288mm" height="249.558812437mm" viewBox="0 0 372.130804288 249.558812437" xmlns="http://www.w3.org/2000/svg" version="1.1">
<g id="Sketch051" transform="translate(186.065402,229.910471) scale(1,-1)">
<path id="Sketch051_w0000"  d="M -139.166666667 0.0 L -167.0 0.0 L -166.430923571 30.1722932408 L -140.067576628 34.1829102838 L -140.819567323 39.1260378356 L -101.274546908 45.1419634001 L -100.522556213 40.1988358483 L -74.1592092696 44.2094528913 L -74.9111999652 49.1525804431 L -35.3661795505 55.1685060077 L -34.6141888549 50.2253784558 L -8.25084191173 54.2359954988 L 0.0 0.0 L -27.8333333333 0.0 L -27.8333333333 -16.0 L -69.5833333333 -16.0 L -69.5833333333 0.0 L -97.4166666667 0.0 L -97.4166666667 -16.0 L -139.166666667 -16.0 L -139.166666667 0.0 " stroke="#000000" stroke-width="0.35 px" style="stroke-width:0.35;stroke-miterlimit:4;stroke-dasharray:none;fill:none;fill-rule: evenodd "/>
<title>Sketch051</title>
</g>
<g id="Sketch050" transform="translate(186.065402,229.910471) scale(1,-1)">
<path id="Sketch050_w0000"  d="M -41.485 0.0 L -55.97 0.0 L -52.0395333222 54.6989673732 L -39.0006204767 53.9905226796 L -38.7293550283 58.9831587625 L -12.7676473971 57.5725784307 L -13.0389128455 52.5799423477 L 0.0 51.8714976541 L 0.0 0.0 L -14.485 0.0 L -14.485 -16.0 L -41.485 -16.0 L -41.485 0.0 " stroke="#000000" stroke-width="0.35 px" style="stroke-width:0.35;stroke-miterlimit:4;stroke-dasharray:none;fill:none;fill-rule: evenodd "/>
<title>Sketch050</title>
</g>
<g id="Sketch048" transform="translate(186.065402,229.910471) scale(1,-1)">
<circle cx="-18.0" cy="133.0" r="12.0" stroke="#000000" stroke-width="0.35 px" style="stroke-width:0.35;stroke-miterlimit:4;stroke-dasharray:none;fill:none"/>
<circle cx="-43.3882809706" cy="143.568121373" r="12.0" stroke="#000000" stroke-width="0.35 px" style="stroke-width:0.35;stroke-miterlimit:4;stroke-dasharray:none;fill:none"/>
<circle cx="-70.8554497475" cy="144.911490043" r="12.0" stroke="#000000" stroke-width="0.35 px" style="stroke-width:0.35;stroke-miterlimit:4;stroke-dasharray:none;fill:none"/>
<circle cx="-90.8032449503" cy="125.981739211" r="12.0" stroke="#000000" stroke-width="0.35 px" style="stroke-width:0.35;stroke-miterlimit:4;stroke-dasharray:none;fill:none"/>
<circle cx="-123.724300861" cy="45.6483281711" r="12.0" stroke="#000000" stroke-width="0.35 px" style="stroke-width:0.35;stroke-miterlimit:4;stroke-dasharray:none;fill:none"/>
<circle cx="-107.382111154" cy="67.7658062278" r="12.0" stroke="#000000" stroke-width="0.35 px" style="stroke-width:0.35;stroke-miterlimit:4;stroke-dasharray:none;fill:none"/>
<circle cx="-84.5943191968" cy="83.1595237032" r="12.0" stroke="#000000" stroke-width="0.35 px" style="stroke-width:0.35;stroke-miterlimit:4;stroke-dasharray:none;fill:none"/>
<circle cx="-104.955309548" cy="25.5491997053" r="12.0" stroke="#000000" stroke-width="0.35 px" style="stroke-width:0.35;stroke-miterlimit:4;stroke-dasharray:none;fill:none"/>
<circle cx="-88.6131198407" cy="47.666677762" r="12.0" stroke="#000000" stroke-width="0.35 px" style="stroke-width:0.35;stroke-miterlimit:4;stroke-dasharray:none;fill:none"/>
<circle cx="-65.8253278835" cy="63.0603952375" r="12.0" stroke="#000000" stroke-width="0.35 px" style="stroke-width:0.35;stroke-miterlimit:4;stroke-dasharray:none;fill:none"/>
<circle cx="-57.8034676948" cy="89.364382751" r="12.0" stroke="#000000" stroke-width="0.35 px" style="stroke-width:0.35;stroke-miterlimit:4;stroke-dasharray:none;fill:none"/>
<circle cx="-58.2852567534" cy="120.452539777" r="12.0" stroke="#000000" stroke-width="0.35 px" style="stroke-width:0.35;stroke-miterlimit:4;stroke-dasharray:none;fill:none"/>
<circle cx="-70.8554497475" cy="172.411490043" r="12.0" stroke="#000000" stroke-width="0.35 px" style="stroke-width:0.35;stroke-miterlimit:4;stroke-dasharray:none;fill:none"/>
<circle cx="-43.3882809706" cy="171.068121373" r="12.0" stroke="#000000" stroke-width="0.35 px" style="stroke-width:0.35;stroke-miterlimit:4;stroke-dasharray:none;fill:none"/>
<circle cx="-18.0" cy="160.5" r="12.0" stroke="#000000" stroke-width="0.35 px" style="stroke-width:0.35;stroke-miterlimit:4;stroke-dasharray:none;fill:none"/>
<path id="Sketch048_w0015"  d="M -146.467150112 36.8528097147 L -148.667291904 51.57430219 L -137.523672838 77.5117780525 L -131.538607293 74.9403909649 L -115.748853038 111.692039371 L -121.733918583 114.263426458 L -111.194257618 138.795151769 L -105.247805293 136.240354231 L -89.458051038 172.992002637 L -95.4045033622 175.546800175 L -86.5292168033 196.204589134 L 0.0 196.204589134 L 0.0 81.6835076708 L 17.0 81.6835076708 L 17.0 21.85 L -140.702583078 -1.71880895639 L -142.624105423 11.1383972673 L -137.554066323 11.8961196878 L -141.397111012 37.6105321352 L -146.467150112 36.8528097147 " stroke="#000000" stroke-width="0.35 px" style="stroke-width:0.35;stroke-miterlimit:4;stroke-dasharray:none;fill:none;fill-rule: evenodd "/>
<title>Sketch048</title>
</g>
<g id="Sketch049" transform="translate(186.065402,229.910471) scale(1,-1)">
<path id="Sketch049_w0000"  d="M 0.0 0.0 L -182.417060925 0.0 L -182.417060925 226.26213 L 0.0 226.26213 L 0.0 0.0 L 182.417060925 0.0 L 182.417060925 226.26213 L 0.0 226.26213 " stroke="#000000" stroke-width="0.35 px" style="stroke-width:0.35;stroke-miterlimit:4;stroke-dasharray:none;fill:none;fill-rule: evenodd "/>
<circle cx="155.0" cy="200.325394" r="12.0" stroke="#000000" stroke-width="0.35 px" style="stroke-width:0.35;stroke-miterlimit:4;stroke-dasharray:none;fill:none"/>
<circle cx="-155.0" cy="200.325394" r="12.0" stroke="#000000" stroke-width="0.35 px" style="stroke-width:0.35;stroke-miterlimit:4;stroke-dasharray:none;fill:none"/>
<circle cx="-48.228848" cy="200.325394" r="12.0" stroke="#000000" stroke-width="0.35 px" style="stroke-width:0.35;stroke-miterlimit:4;stroke-dasharray:none;fill:none"/>
<path id="Sketch049_w0004"  d="M -84.734289 149.09694 L -84.734289 144.09694 A 4 4 0 0 1 -80.7343 140.097L -69.734289 140.09694 A 2 2 0 0 0 -67.7343 138.097L -67.734289 126.09694 L -65.734289 126.09694 L -65.734289 117.09694 A 3.5 3.5 0 0 0 -65.7343 113.097L -65.734289 107.09694 L -67.734289 107.09694 L -67.734289 89.09694 A 2 2 0 0 0 -69.7343 87.0969L -81.734289 87.09694 L -81.734289 85.09694 L -87.734289 85.09694 L -87.734289 78.09694 A 2 2 0 0 0 -89.7343 76.0969L -101.734289 76.09694 A 2 2 0 0 0 -103.734 78.0969L -103.734289 83.09694 A 4 4 0 0 1 -107.734 87.0969L -118.734289 87.09694 A 2 2 0 0 0 -120.734 89.0969L -120.734289 101.09694 L -122.734289 101.09694 L -122.734289 110.09694 A 3.5 3.5 0 0 0 -122.734 114.097L -122.734289 120.09694 L -120.734289 120.09694 L -120.734289 138.09694 A 2 2 0 0 0 -118.734 140.097L -106.734289 140.09694 L -106.734289 142.09694 L -100.734289 142.09694 L -100.734289 149.09694 A 2 2 0 0 0 -98.7343 151.097L -86.734289 151.09694 A 2 2 0 0 0 -84.7343 149.097" stroke="#000000" stroke-width="0.35 px" style="stroke-width:0.35;stroke-miterlimit:4;stroke-dasharray:none;fill:none;fill-rule: evenodd "/>
<path id="Sketch049_w0005"  d="M 163.76 64.7890438881 L 179.883888732 62.2352707954 L 170.492440453 2.94 L 153.964073799 2.94 L 163.76 64.7890438881 " stroke="#000000" stroke-width="0.35 px" style="stroke-width:0.35;stroke-miterlimit:4;stroke-dasharray:none;fill:none;fill-rule: evenodd "/>
<path id="Sketch049_w0006"  d="M 2.539776 44.5 L 7.0 44.5 L 7.0 17.5 L 2.539776 17.5 L 2.539776 44.5 " stroke="#000000" stroke-width="0.35 px" style="stroke-width:0.35;stroke-miterlimit:4;stroke-dasharray:none;fill:none;fill-rule: evenodd "/>
<path id="Sketch049_w0007"  d="M 18.862351955 84.5780215534 L 42.208655675 119.190340208 L 45.922744 116.685156 L 22.5764402801 82.0728373458 L 18.862351955 84.5780215534 " stroke="#000000" stroke-width="0.35 px" style="stroke-width:0.35;stroke-miterlimit:4;stroke-dasharray:none;fill:none;fill-rule: evenodd "/>
<path id="Sketch049_w0008"  d="M 57.7699084548 142.2608462 L 81.1162121747 176.873164854 L 84.8303004997 174.367980647 L 61.4839967798 139.755661993 L 57.7699084548 142.2608462 " stroke="#000000" stroke-width="0.35 px" style="stroke-width:0.35;stroke-miterlimit:4;stroke-dasharray:none;fill:none;fill-rule: evenodd "/>
<path id="Sketch049_w0009"  d="M 40.5005399986 70.1278469553 L 98.9681497249 166.362620921 A 11.3575 11.3575 0 0 0 108.675 171.823L 162.265293461 171.822941918 A 10.7396 10.7396 0 0 0 172.821 159.106L 163.048863258 106.927632898 A 20.5273 20.5273 0 0 0 157.654 96.463L 87.3139909993 23.4656048562 A 19.7443 19.7443 0 0 0 73.0963 17.4215L 47.0831626179 17.421452 A 7.7897 7.7897 0 0 0 39.2935 25.2111L 39.2934669376 65.8163436044 A 8.30359 8.30359 0 0 0 40.5005 70.1278" stroke="#000000" stroke-width="0.35 px" style="stroke-width:0.35;stroke-miterlimit:4;stroke-dasharray:none;fill:none;fill-rule: evenodd "/>
<title>Sketch049</title>
</g>
</svg>